<svg aria-hidden="true" style="position: absolute; width: 0; height: 0; overflow: hidden;" version="1.1" xmlns="http://www.w3.org/2000/svg" xmlns:xlink="http://www.w3.org/1999/xlink">
<defs>
<symbol id="icon-cinema-film" viewBox="0 0 32 32">
<path d="M29.748 6.413c0.327 0 0.591-0.265 0.591-0.591s-0.265-0.591-0.591-0.591h-1.381v-4.046h1.381c0.327 0 0.591-0.266 0.591-0.592s-0.265-0.591-0.591-0.591l-27.496-0.001c-0.327 0-0.591 0.266-0.591 0.592s0.265 0.592 0.591 0.592h1.084v4.045h-1.084c-0.327 0-0.591 0.265-0.591 0.592s0.265 0.591 0.591 0.591h5.064v19.175h-5.064c-0.327 0-0.591 0.265-0.591 0.591 0 0.327 0.265 0.591 0.591 0.591h1.084v4.046h-1.084c-0.327 0-0.591 0.266-0.591 0.592s0.265 0.592 0.591 0.592h27.496c0.328 0.001 0.591-0.265 0.591-0.592s-0.265-0.591-0.591-0.591h-1.381v-4.045h1.381c0.327 0 0.591-0.265 0.591-0.592s-0.265-0.591-0.591-0.591h-4.934v-19.176h4.934zM18.827 1.185h3.586v4.045h-3.586v-4.045zM14.059 1.185h3.585v4.045h-3.585v-4.045zM9.29 1.185h3.585v4.045h-3.585v-4.045zM8.105 30.818h-3.585v-4.046h3.585c0 0 0 4.046 0 4.046zM8.105 5.229h-3.585v-4.045h3.585c0 0 0 4.045 0 4.045zM8.106 6.413h15.919v19.175h-15.919v-19.175zM12.875 30.818h-3.585v-4.045h3.585v4.045zM17.644 30.818h-3.585v-4.045h3.585v4.045zM22.414 30.818h-3.586v-4.045h3.586v4.045zM27.183 26.773v4.045h-3.585v-4.045h3.585zM23.597 5.23v-4.045h3.585v4.045h-3.585z"></path>
</symbol>
</defs>
</svg>